<?xml version="1.0" standalone="no"?><!DOCTYPE svg PUBLIC "-//W3C//DTD SVG 1.1//EN" "http://www.w3.org/Graphics/SVG/1.1/DTD/svg11.dtd"><svg t="1554811726056" class="icon" style="" viewBox="0 0 1024 1024" version="1.1" xmlns="http://www.w3.org/2000/svg" p-id="2672" xmlns:xlink="http://www.w3.org/1999/xlink" width="200" height="200"><defs><style type="text/css"></style></defs><path d="M388.4 765.4c-17.7 0-32-14.3-32-32v-236c0-17.7 14.3-32 32-32s32 14.3 32 32v236c0 17.7-14.3 32-32 32zM522.6 765.4c-17.7 0-32-14.3-32-32v-236c0-17.7 14.3-32 32-32s32 14.3 32 32v236c0 17.7-14.3 32-32 32zM656.8 765.4c-17.7 0-32-14.3-32-32v-236c0-17.7 14.3-32 32-32s32 14.3 32 32v236c0 17.7-14.4 32-32 32zM156.4 291.9h720v64h-720z" p-id="2673" fill="#346137"></path><path d="M756.2 345.3v64h0.2v416c0 35.3-28.7 64-64 64h-352c-35.3 0-64-28.7-64-64V476.5h-0.7V345.3h-63.3v480c0 70.6 57.4 128 128 128h352c70.6 0 128-57.4 128-128v-480h-64.2zM412.8 165.9c3.5-17 18.6-29.8 36.6-29.8h134.1c18 0 33.1 12.8 36.6 29.8h64.5c-3.9-52.4-47.8-93.8-101.2-93.8h-134c-53.4 0-97.2 41.4-101.2 93.8h64.6z" p-id="2674" fill="#346137"></path><path d="M782.4 163.5H589.6v-0.1H481.4v0.1h-231c-70.6 0-128 57.4-128 128v36h64v-36c0-35.3 28.7-64 64-64h244v-0.1h88.3v0.1h199.7c35.3 0 64 28.7 64 64v36h64v-36c0-70.6-57.4-128-128-128z" p-id="2675" fill="#346137"></path></svg>