<?xml version="1.0" standalone="no"?><!DOCTYPE svg PUBLIC "-//W3C//DTD SVG 1.1//EN" "http://www.w3.org/Graphics/SVG/1.1/DTD/svg11.dtd"><svg class="icon" width="200px" height="200.00px" viewBox="0 0 1024 1024" version="1.1" xmlns="http://www.w3.org/2000/svg"><path d="M496.438071 980.347804c-62.223157 0-122.595152-12.190647-179.437765-36.233226-54.895261-23.217794-104.190991-56.45478-146.521075-98.783841-42.330084-42.330084-75.566046-91.626837-98.784864-146.523121C47.652811 641.965004 35.462165 581.593008 35.462165 519.368828c0-62.22418 12.190647-122.596176 36.233226-179.438789 23.218818-54.895261 56.45478-104.192014 98.784864-146.522098s91.626837-75.565023 146.521075-98.783841c56.842613-24.042579 117.214608-36.233226 179.437765-36.233226 62.22418 0 122.596176 12.190647 179.439812 36.233226 54.895261 23.218818 104.190991 56.453756 146.522098 98.783841 42.329061 42.330084 75.565023 91.626837 98.783841 146.522098 24.041556 56.842613 36.232203 117.214608 36.232203 179.438789 0 62.22418-12.190647 122.596176-36.232203 179.438789-23.218818 54.896284-56.45478 104.192014-98.783841 146.523121-42.330084 42.329061-91.626837 75.566046-146.522098 98.783841C619.034247 968.156134 558.662251 980.347804 496.438071 980.347804zM496.438071 93.183286c-234.998175 0-426.184519 191.186344-426.184519 426.185542S261.439896 945.555393 496.438071 945.555393c234.999199 0 426.185542-191.186344 426.185542-426.185542S731.43727 93.183286 496.438071 93.183286z" fill="#ffffff" /><path d="M154.450163 591.919191l4.184299-59.032488 1.930979-43.031049 0.535189-19.136849c0.143263-5.54939 0.215918-10.882861 0.215918-16.001439l-0.10847-10.379395c11.329023 0.145309 19.806091 0.215918 25.435299 0.215918 4.402263 0 12.04943-0.070608 22.946618-0.215918-1.709945 20.688181-2.813069 38.960337-3.309372 54.816466l58.850339 0c0.356111-5.921873 0.695848-13.921058 1.01819-23.995507 0.321318-10.075473 0.483001-16.954137 0.483001-20.637016 0-1.949398-0.072655-5.345752-0.215918-10.183943l25.590841 0.215918c2.662643 0 10.220782-0.070608 22.674419-0.215918-2.574638 37.049824-4.220115 64.60132-4.934382 82.656535-0.716314 18.056238-1.072425 39.698141-1.072425 64.924685l-23.593348-0.215918c-3.536546 0-11.977799 0.071631-25.323758 0.215918 1.802042-17.153682 3.028986-37.119409 3.677762-59.897182l-58.899458 0-1.814322 59.897182-25.110911-0.215918C174.435333 591.703273 166.715511 591.774905 154.450163 591.919191z" fill="#ffffff" /><path d="M424.530344 441.525925c11.531638 0 22.632463 1.551332 33.30043 4.64888 10.666944 3.099594 20.001543 8.054443 28.002774 14.866592 8.000208 6.811126 13.982456 14.649652 17.947767 23.515576 3.963265 8.865925 5.946432 19.066241 5.946432 30.597879 0 12.108782-2.180666 23.228027-6.541997 33.354666-4.361331 10.127661-10.649548 18.723434-18.866696 25.786293-8.217149 7.063883-18.020422 12.235672-29.407774 15.514345-11.389398 3.279696-23.245424 4.920056-35.571147 4.920056-12.181437 0-23.858384-1.604544-35.029818-4.811586-11.17348-3.206018-20.88568-8.395204-29.138644-15.568581-8.253988-7.17133-14.109346-15.154141-17.569144-23.948435-3.459798-8.79327-5.190209-18.558681-5.190209-29.300326 0-15.784498 3.657296-29.641087 10.973936-41.571814 7.314593-11.92868 18.163685-21.24486 32.544207-27.948539S406.509922 441.525925 424.530344 441.525925zM422.584016 474.069109c-8.289804 0-15.785521 2.037403-22.488177 6.108115-6.703679 4.072759-11.858072 9.730619-15.461133 16.974603-3.605108 7.243985-5.406127 15.010879-5.406127 23.299659 0 7.641027 1.638313 14.633279 4.919033 20.974707 3.278673 6.343475 8.271384 11.298324 14.97404 14.866592 6.703679 3.567245 13.802354 5.350868 21.299095 5.350868 8.000208 0 15.334243-1.99954 22.002107-5.999644 6.665817-4.000104 11.747555-9.622148 15.244192-16.866133 3.495614-7.243985 5.243421-14.82873 5.243421-22.759353 0-7.711636-1.620917-14.82873-4.864798-21.35333-3.242857-6.522554-8.000208-11.585873-14.271028-15.190981C437.504844 475.872175 430.439938 474.069109 422.584016 474.069109z" fill="#ffffff" /><path d="M524.540106 591.919191l2.679016-21.840424 6.647397-75.79015 3.322675-49.950645c13.30912 0.145309 23.763217 0.215918 31.360242 0.215918 6.29231 0 15.913435-0.070608 28.862351-0.215918 0.934279 6.200212 1.725294 10.903328 2.372024 14.109346 0.64673 3.208065 2.246157 9.478885 4.798283 18.812461 2.551102 9.335622 4.599761 17.407462 6.145977 24.218588 1.544169 6.811126 3.862981 18.470677 6.955412 34.976606 3.176342-11.31572 6.065136-21.046339 8.665357-29.191856 2.598174-8.144494 5.848195-17.407462 9.746992-27.786857 3.898797-10.379395 6.372128-17.172101 7.41897-20.380166 1.047866-3.206018 2.473331-8.126075 4.279467-14.758122 10.812253 0.145309 21.407566 0.215918 31.78696 0.215918 7.062859 0 16.866133-0.070608 29.407774-0.215918-1.370207 24.291243-2.270716 45.158503-2.703575 62.600757-0.937348 34.166147-1.404999 57.665351-1.404999 70.493517 0 2.667759 0.070608 7.497765 0.215918 14.487969-9.514701-0.144286-16.181541-0.215918-20.001543-0.215918-5.551436 0-12.362562 0.071631-20.435425 0.215918 0.586354-6.487761 1.318018-21.929452 2.196015-46.328142 0.877997-24.397666 1.318018-39.98569 1.318018-46.761 0-2.955308-0.072655-7.062859-0.216941-12.325723l-14.185071 44.004213-20.358677 61.411675c-9.370415-0.144286-15.82236-0.215918-19.352767-0.215918-4.469801 0-11.317767 0.071631-20.542872 0.215918l-13.328563-59.465346-7.801686-31.67849c-0.289596-1.224898-0.615007-2.738367-0.976234-4.541433-0.361227-1.801019-0.939395-4.973268-1.732457-9.513678l-2.725064 29.948079-3.596921 61.411675-0.327458 13.839193c-9.94756-0.144286-16.290011-0.215918-19.029402-0.215918C540.252972 591.703273 533.766234 591.774905 524.540106 591.919191z" fill="#ffffff" /><path d="M730.830449 591.919191c1.806135-18.596544 3.125177-34.166147 3.956102-46.707788s1.662873-29.209252 2.493797-50.004881c0.831948-20.794605 1.24741-34.579563 1.24741-41.355897l-0.107447-9.514701c17.006326 0.145309 37.581943 0.215918 61.724807 0.215918 22.269189 0 41.906435-0.070608 58.913784-0.215918l-0.215918 3.555989c-0.072655 0.861624-0.252757 3.986801-0.540306 9.374508l-0.648776 11.746532c-0.145309 2.515287-0.215918 5.066389-0.215918 7.65126-13.912871-0.576121-25.588795-0.864694-35.030841-0.864694-10.379395 0-17.390066 0.01842-21.028942 0.054235-3.640923 0.037862-9.31618 0.199545-17.028838 0.487094l-1.312902 24.867364c8.507768 0.215918 18.421558 0.324388 29.740348 0.324388 4.036943 0 14.779611-0.251733 32.228005-0.756223-0.721431 9.227152-1.406023 20.217461-2.052752 32.976042-12.464893-0.144286-22.045085-0.216941-28.743648-0.216941-9.94142 0-21.070898 0.25378-33.389458 0.757247l-1.286296 26.272363 12.426007 0c3.672646 0 11.273764-0.107447 22.797215-0.323365l22.366404-0.540306c3.312442-0.070608 8.858762-0.360204 16.638959-0.865717-0.864694 10.66899-1.586125 21.696138-2.162246 33.084513-17.587564-0.144286-36.867676-0.215918-57.842383-0.215918l-47.572482 0.107447L730.830449 591.919191z" fill="#ffffff" /></svg>