<?xml version="1.0" standalone="no"?><!DOCTYPE svg PUBLIC "-//W3C//DTD SVG 1.1//EN" "http://www.w3.org/Graphics/SVG/1.1/DTD/svg11.dtd"><svg t="1554706532515" class="icon" style="" viewBox="0 0 1024 1024" version="1.1" xmlns="http://www.w3.org/2000/svg" p-id="5419" xmlns:xlink="http://www.w3.org/1999/xlink" width="200" height="200"><defs><style type="text/css"></style></defs><path d="M511.7 228.6C239 228.6 74.3 507 74.3 507s190.3 269.8 437.4 269.8S949.1 507 949.1 507 784.3 228.6 511.7 228.6z m286.7 382.7c-92.7 78.2-191.1 127.4-289.6 127.4s-196.9-46.3-289.6-127.4c-31.8-29-63.7-57.9-89.7-89.7-5.8-5.8-8.7-11.6-14.5-17.3 2.9-5.8 8.7-11.6 11.6-17.3 23.1-31.8 52.1-63.7 84-92.7C300.3 313.2 398.8 264 508.8 264S717.3 313.2 807 394.3c31.8 29 57.9 60.8 84 92.7 2.9 5.8 8.7 11.6 11.6 17.3-2.9 5.8-8.7 11.6-14.5 17.3-26 28.9-55 60.8-89.7 89.7z" fill="#2c2c2c" p-id="5420"></path><path d="M821.7 785.2L611.2 574.7c20.1-23.6 32.1-54.3 32.1-87.6 0-73.6-60.9-134.5-134.5-134.5-33.9 0-64.4 12.1-87.6 32.1L247 210.5c-7.8-7.8-20.5-7.8-28.3 0-7.8 7.8-7.8 20.5 0 28.3L395 415.1a135.46 135.46 0 0 0-20.7 72c0 76.1 60.9 134.5 134.5 134.5 26.8 0 51.5-7.6 72.1-20.6l212.5 212.5c7.8 7.8 20.5 7.8 28.3 0 7.8-7.8 7.8-20.5 0-28.3z m-267.5-211c-13.5 7.5-28.9 11.8-45.4 11.8-53.3 0-96.4-43.2-96.4-96.4 0-16.5 4.2-32.1 11.5-45.7 6.4-11.9 15.3-22.4 26-30.6 16.3-12.6 36.8-20.1 59-20.1 53.3 0 96.4 43.2 96.4 96.4 0 21.4-7.7 42-20.6 58.5-8.3 10.6-18.7 19.6-30.5 26.1z" fill="#2c2c2c" p-id="5421"></path></svg>