<?xml version="1.0" standalone="no"?><!DOCTYPE svg PUBLIC "-//W3C//DTD SVG 1.1//EN" "http://www.w3.org/Graphics/SVG/1.1/DTD/svg11.dtd"><svg t="1554706506286" class="icon" style="" viewBox="0 0 1024 1024" version="1.1" xmlns="http://www.w3.org/2000/svg" p-id="5075" xmlns:xlink="http://www.w3.org/1999/xlink" width="200" height="200"><defs><style type="text/css"></style></defs><path d="M512 643.134694c-72.097959 0-131.134694-58.514286-131.134694-131.134694S439.902041 380.865306 512 380.865306s131.134694 58.514286 131.134694 131.134694-59.036735 131.134694-131.134694 131.134694z m0-220.47347c-49.110204 0-89.338776 40.228571-89.338776 89.338776s40.228571 89.338776 89.338776 89.338776 89.338776-40.228571 89.338776-89.338776-40.228571-89.338776-89.338776-89.338776z" p-id="5076" fill="#2c2c2c"></path><path d="M512 780.538776c-173.97551 0-321.828571-131.134694-394.44898-208.979592-30.82449-33.436735-30.82449-85.159184 0-118.595919 72.620408-77.844898 220.473469-208.979592 394.44898-208.979592s321.828571 131.134694 394.44898 208.979592c30.82449 33.436735 30.82449 85.159184 0 118.595919-72.620408 77.844898-220.473469 208.979592-394.44898 208.979592z m0-495.281633c-158.302041 0-295.706122 122.77551-364.146939 195.918367-16.195918 17.240816-16.195918 44.408163 0 61.64898 67.918367 73.142857 205.844898 195.918367 364.146939 195.918367s295.706122-122.77551 364.146939-195.918367c16.195918-17.240816 16.195918-44.408163 0-61.64898-68.440816-73.142857-205.844898-195.918367-364.146939-195.918367z" p-id="5077" fill="#2c2c2c"></path></svg>