<?xml version="1.0" standalone="no"?><!DOCTYPE svg PUBLIC "-//W3C//DTD SVG 1.1//EN" "http://www.w3.org/Graphics/SVG/1.1/DTD/svg11.dtd"><svg t="1553735016696" class="icon" style="" viewBox="0 0 1024 1024" version="1.1" xmlns="http://www.w3.org/2000/svg" p-id="2800" xmlns:xlink="http://www.w3.org/1999/xlink" width="200" height="200"><defs><style type="text/css"></style></defs><path d="M920.3712 854.3488c-35.9424-139.392-135.8336-247.7312-261.9136-295.808 58.624-44.4416 96.7424-114.6112 96.7424-193.6896 0-134.0928-109.1072-243.2-243.2-243.2s-243.2 109.1072-243.2 243.2c0 24.6016 3.6864 48.9216 10.9312 72.2944a242.7392 242.7392 0 0 0 85.1968 121.6512c-100.992 38.912-186.3424 116.864-234.2144 219.8272-11.264 24.2688-20.4032 49.7408-27.1104 75.7248a38.4 38.4 0 1 0 74.3424 19.2c5.5552-21.4784 13.0816-42.5216 22.4-62.5408 40.96-88.0896 115.1488-153.6768 202.2656-184.0896l23.7824 74.624a25.6 25.6 0 0 0 48.7936-15.5648l-23.0144-72.2176a329.6768 329.6768 0 0 1 59.8016-5.7088c20.2752 0 40.2176 1.92 59.6736 5.4528l-62.1568 180.1472-5.376-16.9216a25.6256 25.6256 0 0 0-48.7936 15.5648l28.8256 90.4192c3.3536 10.496 13.0816 17.6896 24.0896 17.8176h0.3072a25.6 25.6 0 0 0 24.192-17.2544l88.5504-256.6912c107.9296 37.376 194.1504 128.5888 224.6912 246.9632a38.3488 38.3488 0 0 0 46.7712 27.5712 38.3744 38.3744 0 0 0 27.6224-46.7712z m-567.296-439.9616A166.6048 166.6048 0 0 1 512 198.4512c91.7504 0 166.4 74.6496 166.4 166.4s-74.6496 166.4-166.4 166.4a165.632 165.632 0 0 1-158.9248-116.864z" fill="#ffffff" p-id="2801"></path></svg>